<svg width="24" height="25" viewBox="0 0 24 25" fill="none" xmlns="http://www.w3.org/2000/svg">
<path fill-rule="evenodd" clip-rule="evenodd" d="M15.7846 0.965719C14.6414 0.34838 13.3354 0 11.9551 0C7.83397 0 4.37517 3.10576 3.93317 7.20317L3.56359 10.6292C3.48518 11.3561 3.44874 11.6896 3.38411 12.0137C3.26603 12.6057 3.07691 13.1813 2.82084 13.728C2.68069 14.0272 2.51221 14.3173 2.14421 14.9491L1.04176 16.8416L1.02066 16.8779C0.64962 17.5148 0.342563 18.0419 0.170303 18.473C-0.00681427 18.9163 -0.0982491 19.3953 0.161687 19.8475C0.421622 20.2997 0.881466 20.4618 1.35368 20.5319C1.81295 20.6 2.42294 20.6 3.16004 20.6H3.16006H3.20197H20.7083H20.7502H20.7503C21.4874 20.6 22.0974 20.6 22.5566 20.5319C23.0288 20.4618 23.4887 20.2997 23.7486 19.8475C24.0085 19.3953 23.9171 18.9163 23.74 18.473C23.5677 18.0419 23.2607 17.5148 22.8896 16.8779L22.8685 16.8416L21.7661 14.9491C21.3981 14.3173 21.2296 14.0272 21.0895 13.728C20.8334 13.1813 20.6443 12.6057 20.5262 12.0137C20.4616 11.6896 20.4251 11.3561 20.3467 10.6292L20.2002 9.27117C19.8866 9.37359 19.5576 9.44367 19.2166 9.47724L19.3525 10.7365L19.3554 10.764C19.4301 11.4564 19.4711 11.8363 19.5455 12.2093C19.6793 12.8802 19.8937 13.5326 20.1839 14.1521C20.3452 14.4966 20.5375 14.8267 20.8881 15.4285L20.902 15.4524L22.0045 17.345C22.4019 18.0274 22.67 18.4901 22.8114 18.844C22.9512 19.1939 22.91 19.2997 22.8816 19.3492C22.8532 19.3986 22.7825 19.4874 22.4098 19.5427C22.0328 19.5987 21.498 19.6 20.7083 19.6H3.20197C2.41226 19.6 1.87747 19.5987 1.50051 19.5427C1.12783 19.4874 1.05709 19.3986 1.02868 19.3492C1.00026 19.2997 0.959146 19.1939 1.09893 18.844C1.24032 18.4901 1.50835 18.0274 1.90584 17.345L3.00829 15.4524L3.02223 15.4285C3.37279 14.8267 3.56508 14.4966 3.72642 14.1521C4.01663 13.5326 4.23097 12.8802 4.36479 12.2093C4.43919 11.8363 4.48016 11.4564 4.55486 10.764L4.55486 10.764L4.55782 10.7365L4.9274 7.31042C5.31462 3.72084 8.34475 1 11.9551 1C13.0635 1 14.1171 1.25641 15.0564 1.71563C15.2712 1.43989 15.5153 1.18814 15.7846 0.965719ZM17.5043 2.21123C17.2047 2.37078 16.9376 2.58605 16.716 2.84371C17.9523 3.97015 18.7913 5.53389 18.9829 7.31042L19.0021 7.48823C19.3501 7.45542 19.6792 7.35504 19.9768 7.19993C19.7634 5.2289 18.8518 3.48752 17.5043 2.21123Z" fill="#222222"/>
<path d="M8.01622 20.6683C8.24854 21.7102 8.76047 22.6308 9.47259 23.2875C10.1847 23.9441 11.0573 24.3 11.9549 24.3C12.8525 24.3 13.725 23.9441 14.4372 23.2875C15.1493 22.6308 15.6612 21.7102 15.8935 20.6683" stroke="#222222" stroke-linecap="round"/>
<ellipse cx="18.7509" cy="4.70002" rx="2.7184" ry="2.8" fill="#222222"/>
</svg>
