<svg width="30" height="30" viewBox="0 0 30 30" fill="none" xmlns="http://www.w3.org/2000/svg">
<g id="&#235;&#146;&#164;&#235;&#161;&#156;&#234;&#176;&#128;&#234;&#184;&#176; &#235;&#178;&#132;&#237;&#138;&#188;">
<path id="Vector" d="M4.99998 12.5L4.11623 13.3837L3.23248 12.5L4.11623 11.6162L4.99998 12.5ZM26.25 22.5C26.25 22.8315 26.1183 23.1494 25.8839 23.3838C25.6494 23.6183 25.3315 23.75 25 23.75C24.6685 23.75 24.3505 23.6183 24.1161 23.3838C23.8817 23.1494 23.75 22.8315 23.75 22.5H26.25ZM10.3662 19.6337L4.11623 13.3837L5.88373 11.6162L12.1337 17.8662L10.3662 19.6337ZM4.11623 11.6162L10.3662 5.36621L12.1337 7.13371L5.88373 13.3837L4.11623 11.6162ZM4.99998 11.25H17.5V13.75H4.99998V11.25ZM26.25 20V22.5H23.75V20H26.25ZM17.5 11.25C19.8206 11.25 22.0462 12.1718 23.6872 13.8128C25.3281 15.4537 26.25 17.6793 26.25 20H23.75C23.75 18.3424 23.0915 16.7526 21.9194 15.5805C20.7473 14.4084 19.1576 13.75 17.5 13.75V11.25Z" fill="black"/>
</g>
</svg>
