<svg width="165" height="118" viewBox="0 0 165 118" fill="none" xmlns="http://www.w3.org/2000/svg">
<path d="M0 10C0 4.47715 4.47715 0 10 0H155C160.523 0 165 4.47715 165 10V108C165 113.523 160.523 118 155 118H10C4.47715 118 0 113.523 0 108V10Z" fill="#F2F2F2"/>
<path d="M83 30.5H73.6667C69.8955 30.5 68.0098 30.5 66.8383 31.6716C65.6667 32.8431 65.6667 34.7288 65.6667 38.5V66.5C65.6667 67.4428 65.6667 67.9142 65.9596 68.2071C66.2525 68.5 66.7239 68.5 67.6667 68.5H92.3334C96.1046 68.5 97.9902 68.5 99.1618 67.3284C100.333 66.1569 100.333 64.2712 100.333 60.5V49.5" stroke="#33363F" stroke-width="2"/>
<path d="M76.5 44.75L89.5 44.75" stroke="#33363F" stroke-width="2" stroke-linecap="round" stroke-linejoin="round"/>
<path d="M76.5 54.25H83" stroke="#33363F" stroke-width="2" stroke-linecap="round" stroke-linejoin="round"/>
<path d="M98.1667 40L98.1667 25.75M91.6667 32.875H104.667" stroke="#33363F" stroke-width="2" stroke-linecap="round" stroke-linejoin="round"/>
<path d="M38.8447 91.02H40.0447C40.0447 94.935 38.6647 98.565 33.7747 100.965L33.0997 99.99C37.3897 97.89 38.8447 94.86 38.8447 91.155V91.02ZM33.8347 91.02H39.4747V92.025H33.8347V91.02ZM38.6647 94.38V95.34L33.3697 95.835L33.1597 94.74L38.6647 94.38ZM42.7147 89.61H43.9597V103.17H42.7147V89.61ZM50.3186 97.185H51.5486V102.75H50.3186V97.185ZM56.5286 89.61H57.7736V103.185H56.5286V89.61ZM46.7486 97.8L46.5836 96.75C49.1486 96.75 52.5536 96.735 55.4936 96.315L55.5686 97.245C52.5386 97.755 49.2686 97.8 46.7486 97.8ZM53.4536 98.865H56.8436V99.84H53.4536V98.865ZM51.0086 90.285C53.0036 90.285 54.3986 91.35 54.3986 92.955C54.3986 94.56 53.0036 95.625 51.0086 95.625C48.9836 95.625 47.6036 94.56 47.6036 92.955C47.6036 91.35 48.9836 90.285 51.0086 90.285ZM51.0086 91.245C49.6886 91.245 48.7586 91.95 48.7586 92.955C48.7586 93.975 49.6886 94.665 51.0086 94.665C52.2986 94.665 53.2286 93.975 53.2286 92.955C53.2286 91.95 52.2986 91.245 51.0086 91.245ZM61.9874 96.105H71.3024V97.125H61.9874V96.105ZM60.4424 100.305H72.7274V101.34H60.4424V100.305ZM61.9874 90.855H71.1674V91.89H63.2324V96.555H61.9874V90.855ZM84.925 92.1H88.84V93.105H84.925V92.1ZM84.925 95.025H88.87V96.03H84.925V95.025ZM88.36 89.625H89.605V99.66H88.36V89.625ZM80.89 101.85H89.935V102.87H80.89V101.85ZM80.89 98.685H82.135V102.375H80.89V98.685ZM79.12 90.51H80.35V92.91H84.025V90.51H85.24V97.35H79.12V90.51ZM80.35 93.885V96.33H84.025V93.885H80.35ZM98.7388 92.1H102.369V93.12H98.7388V92.1ZM98.6188 94.92H102.279V95.94H98.6188V94.92ZM102.159 89.61H103.404V97.74H102.159V89.61ZM97.9138 90.63H99.2488C99.2488 94.125 96.8338 96.57 92.9338 97.74L92.4238 96.735C95.8888 95.73 97.9138 93.735 97.9138 91.17V90.63ZM93.1288 90.63H98.7688V91.65H93.1288V90.63ZM98.9938 97.89C101.739 97.89 103.479 98.865 103.479 100.5C103.479 102.135 101.739 103.11 98.9938 103.11C96.2488 103.11 94.5088 102.135 94.5088 100.5C94.5088 98.865 96.2488 97.89 98.9938 97.89ZM98.9938 98.865C97.0138 98.865 95.7388 99.48 95.7388 100.5C95.7388 101.52 97.0138 102.12 98.9938 102.12C100.989 102.12 102.264 101.52 102.264 100.5C102.264 99.48 100.989 98.865 98.9938 98.865ZM115.238 89.61H116.483V103.17H115.238V89.61ZM116.183 95.175H118.703V96.225H116.183V95.175ZM105.983 91.77H113.978V92.79H105.983V91.77ZM110.033 93.915C111.953 93.915 113.333 95.205 113.333 97.035C113.333 98.865 111.953 100.155 110.033 100.155C108.128 100.155 106.733 98.865 106.733 97.035C106.733 95.205 108.128 93.915 110.033 93.915ZM110.033 94.95C108.803 94.95 107.918 95.805 107.918 97.035C107.918 98.25 108.803 99.12 110.033 99.12C111.263 99.12 112.148 98.25 112.148 97.035C112.148 95.805 111.263 94.95 110.033 94.95ZM109.388 89.775H110.633V92.235H109.388V89.775ZM129.726 89.61H130.971V103.17H129.726V89.61ZM125.751 91.065H126.981C126.981 94.995 125.211 98.43 120.681 100.65L120.021 99.645C123.936 97.755 125.751 94.875 125.751 91.275V91.065ZM120.636 91.065H126.291V92.085H120.636V91.065Z" fill="black"/>
</svg>
