<svg width="71" height="40" viewBox="0 0 71 40" fill="none" xmlns="http://www.w3.org/2000/svg">
<path d="M16.5224 33.9902V33.1992H20.5263V31.2852H21.4736V33.1992H25.3506V33.9902H16.5224ZM17.8506 31.6562V28.6484H23.1826V27.2129H17.792V26.4023H24.1006V29.4102H18.7588V30.8457H24.2568V31.6562H17.8506ZM26.139 33.6777V32.877H34.9671V33.6777H26.139ZM27.3304 27.6133V26.7832H33.7366C33.7366 28.6387 33.5478 30.3867 33.1702 32.0273H32.2523C32.4346 31.2721 32.5745 30.4844 32.6722 29.6641C32.7698 28.8438 32.8187 28.1602 32.8187 27.6133H27.3304ZM42.3376 34.8789V25.8359H43.2556V29.5566H44.7302V30.4355H43.2556V34.8789H42.3376ZM36.2145 29.8301C36.2145 28.7949 36.4131 27.9518 36.8102 27.3008C37.2139 26.6497 37.7673 26.3242 38.4704 26.3242C39.167 26.3242 39.7171 26.6497 40.1208 27.3008C40.5244 27.9453 40.7263 28.7884 40.7263 29.8301C40.7263 30.8717 40.5277 31.7181 40.1306 32.3691C39.7334 33.0137 39.18 33.3359 38.4704 33.3359C37.7608 33.3359 37.2074 33.0137 36.8102 32.3691C36.4131 31.7181 36.2145 30.8717 36.2145 29.8301ZM37.152 29.8301C37.152 30.6113 37.2627 31.2526 37.4841 31.7539C37.7054 32.2552 38.0342 32.5059 38.4704 32.5059C38.7699 32.5059 39.0205 32.3789 39.2224 32.125C39.4307 31.8646 39.5772 31.5423 39.6618 31.1582C39.7464 30.7676 39.7888 30.3249 39.7888 29.8301C39.7888 29.0553 39.6781 28.4173 39.4567 27.916C39.2419 27.4082 38.9131 27.1543 38.4704 27.1543C38.0277 27.1543 37.6957 27.4115 37.4743 27.9258C37.2595 28.4336 37.152 29.0684 37.152 29.8301ZM46.1436 34.1074C46.6058 34.0163 47.0746 33.8796 47.5499 33.6973C48.0251 33.5085 48.445 33.2741 48.8096 32.9941C49.1742 32.7142 49.3565 32.4408 49.3565 32.1738V31.9492H50.2745V32.1641C50.2745 32.444 50.46 32.7272 50.8311 33.0137C51.2022 33.2936 51.6254 33.5247 52.1006 33.707C52.5759 33.8893 53.0446 34.026 53.5069 34.1172L53.0967 34.8203C52.4652 34.6901 51.8304 34.4688 51.1924 34.1562C50.5609 33.8438 50.1052 33.5085 49.8252 33.1504C49.5388 33.5085 49.0831 33.8438 48.4581 34.1562C47.8331 34.4688 47.1983 34.6934 46.5538 34.8301L46.1436 34.1074ZM45.3819 30.9922V30.2402H54.2002V30.9922H50.2549V31.7734H49.3565V30.9922H45.3819ZM46.4268 27.6328C46.4268 27.2682 46.5863 26.959 46.9053 26.7051C47.2243 26.4512 47.6312 26.2689 48.126 26.1582C48.6273 26.041 49.1905 25.9824 49.8155 25.9824C50.7725 25.9824 51.5733 26.1257 52.2178 26.4121C52.8689 26.6921 53.1944 27.099 53.1944 27.6328C53.1944 28.1667 52.8689 28.5768 52.2178 28.8633C51.5733 29.1432 50.7725 29.2832 49.8155 29.2832C48.8324 29.2832 48.0219 29.1432 47.3838 28.8633C46.7458 28.5768 46.4268 28.1667 46.4268 27.6328ZM47.4424 27.6328C47.4424 27.9388 47.6768 28.1699 48.1456 28.3262C48.6143 28.4824 49.1709 28.5605 49.8155 28.5605C50.473 28.5605 51.0329 28.4824 51.4952 28.3262C51.9574 28.1699 52.1885 27.9388 52.1885 27.6328C52.1885 27.3333 51.9541 27.1022 51.4854 26.9395C51.0232 26.7767 50.4665 26.6953 49.8155 26.6953C49.4249 26.6953 49.0538 26.7279 48.7022 26.793C48.3571 26.8516 48.0609 26.9557 47.8135 27.1055C47.5661 27.2487 47.4424 27.4245 47.4424 27.6328Z" fill="black"/>
<path d="M25.5835 9.49999L25.1931 9.18764L24.9432 9.49999L25.1931 9.81234L25.5835 9.49999ZM32.7085 9.99999C32.9846 9.99999 33.2085 9.77613 33.2085 9.49999C33.2085 9.22385 32.9846 8.99999 32.7085 8.99999V9.99999ZM28.3597 5.22931L25.1931 9.18764L25.9739 9.81234L29.1406 5.854L28.3597 5.22931ZM25.1931 9.81234L28.3597 13.7707L29.1406 13.146L25.9739 9.18764L25.1931 9.81234ZM25.5835 9.99999H32.7085V8.99999H25.5835V9.99999Z" fill="#222222"/>
<path d="M31.9165 6.43779V6.28329C31.9165 4.92987 31.9165 4.25316 32.2547 3.74815C32.3384 3.62306 32.436 3.50783 32.5457 3.40464C32.9882 2.98806 33.6557 2.87681 34.9907 2.65431V2.65431C37.6981 2.20307 39.0518 1.97746 40.019 2.5886C40.2549 2.73766 40.4689 2.91889 40.6547 3.12707C41.4165 3.98063 41.4165 5.35301 41.4165 8.09778V10.9022C41.4165 13.647 41.4165 15.0194 40.6547 15.8729C40.4689 16.0811 40.2549 16.2624 40.019 16.4114C39.0518 17.0226 37.6976 16.7969 34.9893 16.3455V16.3455C33.6559 16.1232 32.9892 16.0121 32.547 15.5966C32.4364 15.4927 32.338 15.3765 32.2537 15.2504C31.9165 14.7459 31.9165 14.0702 31.9165 12.7189V12.7189" stroke="#222222"/>
</svg>
