<svg width="346" height="57" viewBox="0 0 346 57" fill="none" xmlns="http://www.w3.org/2000/svg">
<g filter="url(#filter0_d_1338_3764)">
<rect x="6" y="6" width="334" height="45" rx="22.5" fill="black"/>
</g>
<path d="M149.249 31.8799V30.6641H151.725V27.8369H149.542V26.6211H151.725V23.1348H152.985V35.7178H151.725V31.8799H149.249ZM154.581 36.3184V22.7539H155.914V36.3184H154.581ZM144.122 33.4912C145.529 32.3389 146.583 31.0352 147.287 29.5801C147.99 28.1152 148.351 26.6992 148.371 25.332H144.664V24.1162H149.821C149.821 28.2275 148.268 31.626 145.163 34.3115L144.122 33.4912ZM159.866 33.3008V32.1729H169.329V36.4209H167.966V33.3008H159.866ZM158.137 30.5615V29.4336H164.084V27.1924H165.461V29.4336H171.365V30.5615H158.137ZM158.972 26.8994C159.773 26.665 160.544 26.3672 161.287 26.0059C162.039 25.6445 162.698 25.2051 163.264 24.6875C163.831 24.1602 164.114 23.6426 164.114 23.1348V22.7832H165.476V23.1348C165.476 23.6426 165.769 24.1602 166.355 24.6875C166.951 25.2148 167.62 25.6592 168.362 26.0205C169.104 26.3721 169.851 26.6553 170.603 26.8701L169.958 27.8955C169.031 27.6416 168.054 27.2314 167.029 26.665C166.013 26.0986 165.271 25.498 164.802 24.8633C164.343 25.498 163.621 26.0938 162.634 26.6504C161.658 27.1973 160.657 27.6221 159.631 27.9248L158.972 26.8994ZM182.479 36.3184V22.7539H183.871V28.9795H186.039V30.2686H183.871V36.3184H182.479ZM174.657 24.7461V23.4717H179.476V24.7461H174.657ZM172.84 27.5732V26.3135H180.853V27.5732H172.84ZM173.426 31.5723C173.426 30.7324 173.763 30.0439 174.437 29.5068C175.111 28.9697 175.98 28.7012 177.044 28.7012C178.109 28.7012 178.978 28.9697 179.652 29.5068C180.335 30.0342 180.677 30.7227 180.677 31.5723C180.677 32.4121 180.335 33.1055 179.652 33.6523C178.978 34.1895 178.109 34.458 177.044 34.458C175.98 34.458 175.111 34.1895 174.437 33.6523C173.763 33.1055 173.426 32.4121 173.426 31.5723ZM174.833 31.5723C174.833 32.0703 175.047 32.4756 175.477 32.7881C175.917 33.0908 176.439 33.2422 177.044 33.2422C177.64 33.2422 178.158 33.0908 178.597 32.7881C179.037 32.4854 179.256 32.0801 179.256 31.5723C179.256 31.0645 179.042 30.6592 178.612 30.3564C178.182 30.0537 177.66 29.9023 177.044 29.9023C176.419 29.9023 175.892 30.0537 175.462 30.3564C175.042 30.6592 174.833 31.0645 174.833 31.5723ZM197.343 36.3184V22.7539H198.75V36.3184H197.343ZM187.5 33.5205C189.189 32.4561 190.537 31.1816 191.543 29.6973C192.548 28.2031 193.061 26.7432 193.081 25.3174H188.232V24.0576H194.531C194.531 28.2764 192.509 31.7285 188.466 34.4141L187.5 33.5205Z" fill="white"/>
<path d="M312.5 22L321.5 29L312.5 36" stroke="white" stroke-width="2"/>
<defs>
<filter id="filter0_d_1338_3764" x="0" y="0" width="346" height="57" filterUnits="userSpaceOnUse" color-interpolation-filters="sRGB">
<feFlood flood-opacity="0" result="BackgroundImageFix"/>
<feColorMatrix in="SourceAlpha" type="matrix" values="0 0 0 0 0 0 0 0 0 0 0 0 0 0 0 0 0 0 127 0" result="hardAlpha"/>
<feMorphology radius="2" operator="dilate" in="SourceAlpha" result="effect1_dropShadow_1338_3764"/>
<feOffset/>
<feGaussianBlur stdDeviation="2"/>
<feComposite in2="hardAlpha" operator="out"/>
<feColorMatrix type="matrix" values="0 0 0 0 0 0 0 0 0 0 0 0 0 0 0 0 0 0 0.25 0"/>
<feBlend mode="normal" in2="BackgroundImageFix" result="effect1_dropShadow_1338_3764"/>
<feBlend mode="normal" in="SourceGraphic" in2="effect1_dropShadow_1338_3764" result="shape"/>
</filter>
</defs>
</svg>
