<svg width="346" height="57" viewBox="0 0 346 57" fill="none" xmlns="http://www.w3.org/2000/svg">
<g filter="url(#filter0_d_1464_1602)">
<rect x="6" y="6" width="334" height="45" rx="22.5" fill="black"/>
</g>
<path d="M151.33 29.1846V27.8809H154.289V22.7539H155.68V36.3184H154.289V29.1846H151.33ZM143.888 33.3887C144.181 33.1934 144.459 32.9883 144.723 32.7734C144.987 32.5488 145.309 32.2363 145.69 31.8359C146.071 31.4355 146.393 31.0205 146.657 30.5908C146.93 30.1611 147.164 29.6484 147.36 29.0527C147.555 28.457 147.653 27.8467 147.653 27.2217V25.3174H144.694V24.0576H152.003V25.3174H149.059V27.1484C149.059 27.8125 149.176 28.4717 149.411 29.126C149.655 29.7803 149.967 30.3564 150.348 30.8545C150.739 31.3525 151.115 31.7822 151.476 32.1436C151.847 32.4951 152.218 32.7979 152.589 33.0518L151.666 33.9307C151.051 33.5205 150.412 32.9248 149.747 32.1436C149.093 31.3623 148.639 30.6543 148.385 30.0195C148.151 30.6934 147.677 31.46 146.964 32.3193C146.261 33.1689 145.563 33.8281 144.87 34.2969L143.888 33.3887ZM160.232 33.6523C160.232 32.832 160.676 32.1875 161.565 31.7188C162.454 31.25 163.625 31.0156 165.081 31.0156C166.565 31.0156 167.747 31.25 168.625 31.7188C169.514 32.1777 169.958 32.8223 169.958 33.6523C169.958 34.4727 169.509 35.1172 168.611 35.5859C167.722 36.0547 166.545 36.2842 165.081 36.2744C163.606 36.2646 162.429 36.0303 161.55 35.5713C160.671 35.1123 160.232 34.4727 160.232 33.6523ZM161.711 33.6523C161.711 34.1113 162.009 34.4678 162.605 34.7217C163.201 34.9658 164.026 35.0879 165.081 35.0879C166.096 35.0879 166.916 34.9609 167.541 34.707C168.166 34.4531 168.479 34.1016 168.479 33.6523C168.479 33.1738 168.171 32.8125 167.556 32.5684C166.941 32.3145 166.116 32.1875 165.081 32.1875C164.036 32.1875 163.21 32.3145 162.605 32.5684C162.009 32.8223 161.711 33.1836 161.711 33.6523ZM168.201 31.001V22.7539H169.578V26.4453H171.35V27.6758H169.578V31.001H168.201ZM158.123 29.7266C158.562 29.5312 158.992 29.3018 159.412 29.0381C159.832 28.7646 160.237 28.457 160.627 28.1152C161.018 27.7734 161.34 27.3877 161.594 26.958C161.848 26.5283 161.995 26.0986 162.034 25.6689V24.7168H158.899V23.5449H166.604V24.7168H163.572V25.5957C163.63 26.3184 164.001 27.002 164.685 27.6465C165.378 28.291 166.155 28.8135 167.014 29.2139L166.238 30.1367C165.603 29.8633 164.949 29.458 164.275 28.9209C163.611 28.374 163.132 27.8418 162.839 27.3242C162.566 27.8809 162.068 28.4766 161.345 29.1113C160.623 29.7363 159.822 30.2539 158.943 30.6641L158.123 29.7266ZM182.479 36.3184V22.7539H183.871V28.9795H186.039V30.2686H183.871V36.3184H182.479ZM174.657 24.7461V23.4717H179.476V24.7461H174.657ZM172.84 27.5732V26.3135H180.853V27.5732H172.84ZM173.426 31.5723C173.426 30.7324 173.763 30.0439 174.437 29.5068C175.111 28.9697 175.98 28.7012 177.044 28.7012C178.109 28.7012 178.978 28.9697 179.652 29.5068C180.335 30.0342 180.677 30.7227 180.677 31.5723C180.677 32.4121 180.335 33.1055 179.652 33.6523C178.978 34.1895 178.109 34.458 177.044 34.458C175.98 34.458 175.111 34.1895 174.437 33.6523C173.763 33.1055 173.426 32.4121 173.426 31.5723ZM174.833 31.5723C174.833 32.0703 175.047 32.4756 175.477 32.7881C175.917 33.0908 176.439 33.2422 177.044 33.2422C177.64 33.2422 178.158 33.0908 178.597 32.7881C179.037 32.4854 179.256 32.0801 179.256 31.5723C179.256 31.0645 179.042 30.6592 178.612 30.3564C178.182 30.0537 177.66 29.9023 177.044 29.9023C176.419 29.9023 175.892 30.0537 175.462 30.3564C175.042 30.6592 174.833 31.0645 174.833 31.5723ZM197.343 36.3184V22.7539H198.75V36.3184H197.343ZM187.5 33.5205C189.189 32.4561 190.537 31.1816 191.543 29.6973C192.548 28.2031 193.061 26.7432 193.081 25.3174H188.232V24.0576H194.531C194.531 28.2764 192.509 31.7285 188.466 34.4141L187.5 33.5205Z" fill="white"/>
<defs>
<filter id="filter0_d_1464_1602" x="0" y="0" width="346" height="57" filterUnits="userSpaceOnUse" color-interpolation-filters="sRGB">
<feFlood flood-opacity="0" result="BackgroundImageFix"/>
<feColorMatrix in="SourceAlpha" type="matrix" values="0 0 0 0 0 0 0 0 0 0 0 0 0 0 0 0 0 0 127 0" result="hardAlpha"/>
<feMorphology radius="2" operator="dilate" in="SourceAlpha" result="effect1_dropShadow_1464_1602"/>
<feOffset/>
<feGaussianBlur stdDeviation="2"/>
<feComposite in2="hardAlpha" operator="out"/>
<feColorMatrix type="matrix" values="0 0 0 0 0 0 0 0 0 0 0 0 0 0 0 0 0 0 0.25 0"/>
<feBlend mode="normal" in2="BackgroundImageFix" result="effect1_dropShadow_1464_1602"/>
<feBlend mode="normal" in="SourceGraphic" in2="effect1_dropShadow_1464_1602" result="shape"/>
</filter>
</defs>
</svg>
