<svg width="334" height="57" viewBox="0 0 334 57" fill="none" xmlns="http://www.w3.org/2000/svg">
<g filter="url(#filter0_d_2046_3458)">
<rect x="6" y="6" width="322" height="45" rx="22.5" fill="black"/>
</g>
<path d="M51.3502 31.8027V30.6016H60.901V35.4648H59.5387V31.8027H51.3502ZM59.5241 29.9277V21.7539H60.901V29.9277H59.5241ZM48.8014 28.3896C49.2995 28.1357 49.7731 27.8525 50.2223 27.54C50.6715 27.2178 51.1012 26.8467 51.5114 26.4268C51.9313 25.9971 52.2633 25.5186 52.5075 24.9912C52.7614 24.4541 52.8883 23.9023 52.8883 23.3359V22.2373H54.236V23.3066C54.236 23.8633 54.3678 24.4053 54.6315 24.9326C54.8952 25.46 55.237 25.9238 55.6569 26.3242C56.0866 26.7246 56.4967 27.0615 56.8873 27.335C57.2877 27.6084 57.6881 27.8428 58.0885 28.0381L57.2829 28.9902C56.6969 28.7168 56.028 28.2676 55.276 27.6426C54.5241 27.0078 53.9625 26.3584 53.5914 25.6943C53.2496 26.3779 52.6979 27.0615 51.9362 27.7451C51.1842 28.4189 50.4274 28.9512 49.6657 29.3418L48.8014 28.3896ZM65.2477 35.1133V30.7041H74.5788V35.1133H65.2477ZM66.6247 33.9707H73.2018V31.832H66.6247V33.9707ZM63.2702 29.0928V27.9502H76.4977V29.0928H70.5798V30.9971H69.2321V29.0928H63.2702ZM64.3981 26.6611V25.5771H66.5807V23.1455H64.7057V22.0469H75.1354V23.1455H73.2458V25.5771H75.4284V26.6611H64.3981ZM67.9137 25.5771H71.9274V23.1455H67.9137V25.5771ZM83.99 35.1133V30.1475H93.2918V35.1133H83.99ZM85.367 33.9121H91.9148V31.3486H85.367V33.9121ZM88.5603 26.6611V25.4307H91.9002V21.7539H93.2771V29.4883H91.9002V26.6611H88.5603ZM81.573 28.5215C83.1062 28.0039 84.4148 27.3105 85.4988 26.4414C86.5925 25.5625 87.2127 24.6543 87.3591 23.7168H82.408V22.5156H88.9412C88.9412 23.2676 88.7947 23.9854 88.5017 24.6689C88.2088 25.3428 87.8425 25.9238 87.4031 26.4121C86.9636 26.8906 86.4363 27.3447 85.8211 27.7744C85.2058 28.1943 84.6248 28.5361 84.0779 28.7998C83.531 29.0537 82.95 29.293 82.3347 29.5176L81.573 28.5215ZM98.034 32.0371V30.8652H107.717V35.4502H106.354V32.0371H98.034ZM103.395 30.001V21.9297H104.611V25.5771H106.413V21.7539H107.717V30.2061H106.413V26.8076H104.611V30.001H103.395ZM95.4705 28.9902C96.3592 28.4141 97.1209 27.6621 97.7557 26.7344C98.4002 25.7969 98.7225 24.7617 98.7225 23.6289V22.3545H100.07V23.5996C100.07 24.166 100.178 24.7275 100.392 25.2842C100.607 25.8408 100.886 26.334 101.227 26.7637C101.579 27.1836 101.906 27.54 102.209 27.833C102.521 28.1162 102.824 28.3604 103.117 28.5654L102.253 29.459C101.813 29.166 101.305 28.707 100.729 28.082C100.153 27.4473 99.7234 26.832 99.4402 26.2363C99.1668 26.8809 98.7371 27.5498 98.1512 28.2432C97.5652 28.9268 96.9842 29.4639 96.408 29.8545L95.4705 28.9902ZM113.524 32.125V30.9971H126.766V32.125H120.878V35.333H119.486V32.125H113.524ZM117.069 22.9404V21.8564H123.28V22.9404H117.069ZM114.652 25.1084V24.0537H125.683V25.1084H114.652ZM115.502 27.833C115.502 27.3838 115.717 27.0127 116.146 26.7197C116.586 26.4268 117.142 26.2217 117.816 26.1045C118.49 25.9873 119.276 25.9287 120.175 25.9287C121.044 25.9287 121.815 25.9873 122.489 26.1045C123.163 26.2217 123.724 26.4316 124.174 26.7344C124.623 27.0273 124.848 27.3936 124.848 27.833C124.848 28.2822 124.628 28.6533 124.188 28.9463C123.749 29.2393 123.192 29.4492 122.518 29.5762C121.845 29.6934 121.063 29.752 120.175 29.752C118.778 29.752 117.65 29.6006 116.791 29.2979C115.932 28.9854 115.502 28.4971 115.502 27.833ZM117.04 27.833C117.04 28.4775 118.085 28.7998 120.175 28.7998C122.265 28.7998 123.309 28.4775 123.309 27.833C123.309 27.1982 122.265 26.8809 120.175 26.8809C118.085 26.8809 117.04 27.1982 117.04 27.833ZM142.022 35.3184V21.7539H143.414V35.3184H142.022ZM132.662 32.7109V22.7061H134.01V26.3242H137.804V22.7061H139.151V32.7109H132.662ZM134.01 31.4658H137.804V27.5986H134.01V31.4658ZM145.871 33.6631V32.4619H148.991V27.3936H150.354V32.4619H152.653V27.3936H154.016V32.4619H159.113V33.6631H145.871ZM147.541 24.1855V22.9404H157.692C157.692 24.0635 157.614 25.3672 157.458 26.8516C157.312 28.3359 157.121 29.6006 156.887 30.6455H155.51C155.744 29.6494 155.935 28.5068 156.081 27.2178C156.228 25.9287 156.301 24.918 156.301 24.1855H147.541ZM170.971 27.9355V26.6318H174.34V21.7539H175.717V35.3184H174.34V27.9355H170.971ZM163.632 32.5498C164.13 32.1689 164.584 31.749 164.994 31.29C165.414 30.8213 165.824 30.2695 166.225 29.6348C166.635 29 166.952 28.2676 167.177 27.4375C167.411 26.5977 167.528 25.709 167.528 24.7715V22.501H168.876V24.7275C168.876 25.5771 168.983 26.4023 169.198 27.2031C169.423 28.0039 169.716 28.7168 170.077 29.3418C170.448 29.957 170.829 30.499 171.22 30.9678C171.62 31.4268 172.03 31.8174 172.45 32.1396L171.469 33.0039C170.893 32.584 170.263 31.9004 169.579 30.9531C168.905 30.0059 168.451 29.1221 168.217 28.3018C167.982 29.1611 167.519 30.0742 166.825 31.041C166.142 31.998 165.439 32.7891 164.716 33.4141L163.632 32.5498ZM188.794 35.3184V21.7539H190.186V35.3184H188.794ZM179.434 32.7109V22.7061H180.781V26.3242H184.575V22.7061H185.923V32.7109H179.434ZM180.781 31.4658H184.575V27.5986H180.781V31.4658ZM192.643 33.6777V32.4912H205.885V33.6777H192.643ZM193.404 28.8145C194.186 28.4922 194.957 28.0625 195.719 27.5254C196.481 26.9883 197.15 26.334 197.726 25.5625C198.312 24.7812 198.605 24.0195 198.605 23.2773V22.5742H199.982V23.2773C199.982 23.8438 200.152 24.4248 200.494 25.0205C200.846 25.6064 201.29 26.1387 201.827 26.6172C202.364 27.0957 202.921 27.5205 203.497 27.8916C204.073 28.2627 204.63 28.5605 205.167 28.7852L204.391 29.7959C203.463 29.4053 202.486 28.7998 201.461 27.9795C200.445 27.1592 199.723 26.3242 199.293 25.4746C198.883 26.3145 198.18 27.1396 197.184 27.9502C196.188 28.7607 195.187 29.3857 194.181 29.8252L193.404 28.8145ZM221.141 35.3184V21.7539H222.532V35.3184H221.141ZM211.531 27.7451C211.531 26.1924 211.834 24.9277 212.44 23.9512C213.055 22.9746 213.9 22.4863 214.974 22.4863C216.029 22.4863 216.864 22.9746 217.479 23.9512C218.104 24.918 218.416 26.1826 218.416 27.7451C218.416 29.3076 218.114 30.5771 217.508 31.5537C216.903 32.5205 216.058 33.0039 214.974 33.0039C213.89 33.0039 213.045 32.5156 212.44 31.5391C211.834 30.5625 211.531 29.2979 211.531 27.7451ZM212.938 27.7451C212.938 28.9072 213.109 29.8691 213.45 30.6309C213.792 31.3926 214.3 31.7734 214.974 31.7734C215.648 31.7734 216.156 31.3926 216.497 30.6309C216.839 29.8594 217.01 28.8975 217.01 27.7451C217.01 26.583 216.839 25.626 216.497 24.874C216.156 24.1123 215.648 23.7314 214.974 23.7314C214.29 23.7314 213.778 24.1172 213.436 24.8887C213.104 25.6504 212.938 26.6025 212.938 27.7451ZM226.601 32.916C226.601 32.1543 227.055 31.5732 227.963 31.1729C228.871 30.7627 230.097 30.5576 231.64 30.5576C233.183 30.5576 234.413 30.7578 235.331 31.1582C236.259 31.5586 236.723 32.1445 236.723 32.916C236.723 33.668 236.254 34.249 235.317 34.6592C234.389 35.0693 233.163 35.2695 231.64 35.2598C230.087 35.25 228.857 35.0449 227.949 34.6445C227.05 34.2441 226.601 33.668 226.601 32.916ZM228.11 32.916C228.11 33.7363 229.286 34.1465 231.64 34.1465C232.704 34.1465 233.564 34.0439 234.218 33.8389C234.882 33.624 235.214 33.3164 235.214 32.916C235.214 32.4961 234.892 32.1836 234.247 31.9785C233.603 31.7734 232.734 31.6709 231.64 31.6709C229.286 31.6709 228.11 32.0859 228.11 32.916ZM225.004 29.5469V28.4043H228.359V26.7344H229.677V28.4043H233.632V26.7344H234.936V28.4043H238.232V29.5469H225.004ZM226.513 24.3027C226.513 23.5215 227.001 22.9307 227.978 22.5303C228.954 22.1201 230.18 21.915 231.655 21.915C232.582 21.915 233.422 21.998 234.174 22.1641C234.926 22.3203 235.551 22.584 236.049 22.9551C236.547 23.3262 236.796 23.7754 236.796 24.3027C236.796 24.8301 236.547 25.2793 236.049 25.6504C235.561 26.0215 234.936 26.29 234.174 26.4561C233.422 26.6123 232.582 26.6904 231.655 26.6904C230.16 26.6904 228.93 26.4902 227.963 26.0898C226.996 25.6797 226.513 25.084 226.513 24.3027ZM228.036 24.3027C228.036 24.752 228.393 25.084 229.106 25.2988C229.819 25.5039 230.668 25.6064 231.655 25.6064C232.66 25.6064 233.515 25.499 234.218 25.2842C234.921 25.0596 235.273 24.7324 235.273 24.3027C235.273 23.873 234.916 23.5459 234.203 23.3213C233.5 23.0967 232.651 22.9844 231.655 22.9844C230.707 22.9844 229.867 23.0967 229.135 23.3213C228.403 23.5459 228.036 23.873 228.036 24.3027ZM249.346 35.3184V21.7539H250.738V27.9795H252.906V29.2686H250.738V35.3184H249.346ZM241.524 23.7461V22.4717H246.343V23.7461H241.524ZM239.707 26.5732V25.3135H247.72V26.5732H239.707ZM240.293 30.5723C240.293 29.7324 240.63 29.0439 241.304 28.5068C241.978 27.9697 242.847 27.7012 243.911 27.7012C244.976 27.7012 245.845 27.9697 246.519 28.5068C247.202 29.0342 247.544 29.7227 247.544 30.5723C247.544 31.4121 247.202 32.1055 246.519 32.6523C245.845 33.1895 244.976 33.458 243.911 33.458C242.847 33.458 241.978 33.1895 241.304 32.6523C240.63 32.1055 240.293 31.4121 240.293 30.5723ZM241.7 30.5723C241.7 31.0703 241.914 31.4756 242.344 31.7881C242.784 32.0908 243.306 32.2422 243.911 32.2422C244.507 32.2422 245.025 32.0908 245.464 31.7881C245.904 31.4854 246.123 31.0801 246.123 30.5723C246.123 30.0645 245.909 29.6592 245.479 29.3564C245.049 29.0537 244.527 28.9023 243.911 28.9023C243.286 28.9023 242.759 29.0537 242.329 29.3564C241.91 29.6592 241.7 30.0645 241.7 30.5723ZM264.21 35.3184V21.7539H265.617V35.3184H264.21ZM254.367 32.5205C256.056 31.4561 257.404 30.1816 258.41 28.6973C259.415 27.2031 259.928 25.7432 259.948 24.3174H255.099V23.0576H261.398C261.398 27.2764 259.376 30.7285 255.333 33.4141L254.367 32.5205Z" fill="white"/>
<ellipse cx="298.926" cy="27" rx="6.56375" ry="7" stroke="#B5B1B1" stroke-width="2"/>
<path d="M307.365 36L304.552 33" stroke="#B5B1B1" stroke-width="2" stroke-linecap="round"/>
<defs>
<filter id="filter0_d_2046_3458" x="0" y="0" width="334" height="57" filterUnits="userSpaceOnUse" color-interpolation-filters="sRGB">
<feFlood flood-opacity="0" result="BackgroundImageFix"/>
<feColorMatrix in="SourceAlpha" type="matrix" values="0 0 0 0 0 0 0 0 0 0 0 0 0 0 0 0 0 0 127 0" result="hardAlpha"/>
<feMorphology radius="2" operator="dilate" in="SourceAlpha" result="effect1_dropShadow_2046_3458"/>
<feOffset/>
<feGaussianBlur stdDeviation="2"/>
<feComposite in2="hardAlpha" operator="out"/>
<feColorMatrix type="matrix" values="0 0 0 0 0 0 0 0 0 0 0 0 0 0 0 0 0 0 0.25 0"/>
<feBlend mode="normal" in2="BackgroundImageFix" result="effect1_dropShadow_2046_3458"/>
<feBlend mode="normal" in="SourceGraphic" in2="effect1_dropShadow_2046_3458" result="shape"/>
</filter>
</defs>
</svg>
