<svg width="293" height="239" viewBox="0 0 293 239" fill="none" xmlns="http://www.w3.org/2000/svg">
<g filter="url(#filter0_d_1357_833)">
<path d="M11.5998 229.565L37.9046 218.913L17.8132 204.153L11.5998 229.565Z" fill="white"/>
<path d="M17.8782 204.324L11.7464 229.403L37.7057 218.89L17.8782 204.324Z" stroke="black" stroke-width="0.2"/>
</g>
<g filter="url(#filter1_d_1357_833)">
<rect width="273" height="220" rx="20" transform="matrix(-1 0 0 1 289 0)" fill="white"/>
<rect x="-0.1" y="0.1" width="272.8" height="219.8" rx="19.9" transform="matrix(-1 0 0 1 288.8 0)" stroke="black" stroke-width="0.2"/>
</g>
<path d="M18.5 203.5L34.9669 215.236L36.0001 219.5L23.5001 224.5L15.0001 216.5L17.5 206.5L18.5 203.5Z" fill="white"/>
<path d="M18.5 203.5L34.9669 215.236L36.0001 219.5L23.5001 224.5L15.0001 216.5L17.5 206.5L18.5 203.5Z" fill="white"/>
<path d="M39.1669 39.525H45.3919V45.345H39.1669V39.525ZM44.1769 40.53H40.3819V44.34H44.1769V40.53ZM47.8819 38.61H49.1269V46.335H47.8819V38.61ZM48.7819 41.865H51.1369V42.9H48.7819V41.865ZM44.2669 47.61H45.3319V47.97C45.3319 50.1 43.0969 51.675 40.4269 52.125L39.9469 51.165C42.2869 50.805 44.2669 49.485 44.2669 47.97V47.61ZM44.5069 47.61H45.5719V47.97C45.5719 49.455 47.5819 50.805 49.8769 51.18L49.4119 52.14C46.7569 51.69 44.5069 50.055 44.5069 47.97V47.61ZM40.4719 47.145H49.3669V48.135H40.4719V47.145ZM57.7508 46.08H58.9808V48.225H57.7508V46.08ZM52.2308 45.3H64.4858V46.32H52.2308V45.3ZM57.7508 38.52H58.9808V40.425H57.7508V38.52ZM57.6908 40.53H58.7858V40.74C58.7858 42.945 56.2958 44.22 53.3258 44.52L52.9508 43.56C55.5758 43.35 57.6908 42.285 57.6908 40.74V40.53ZM57.9458 40.53H59.0408V40.74C59.0408 42.285 61.1408 43.35 63.7808 43.56L63.4058 44.52C60.4358 44.22 57.9458 42.945 57.9458 40.74V40.53ZM53.4908 39.885H63.2408V40.875H53.4908V39.885ZM53.7308 47.79H62.9858V51.99H53.7308V47.79ZM61.7708 48.78H54.9608V50.985H61.7708V48.78ZM75.7196 38.595H76.9646V52.185H75.7196V38.595ZM69.8096 39.645C71.8196 39.645 73.2596 41.49 73.2596 44.37C73.2596 47.265 71.8196 49.11 69.8096 49.11C67.8146 49.11 66.3746 47.265 66.3746 44.37C66.3746 41.49 67.8146 39.645 69.8096 39.645ZM69.8096 40.77C68.4896 40.77 67.5596 42.18 67.5596 44.37C67.5596 46.575 68.4896 48.015 69.8096 48.015C71.1446 48.015 72.0596 46.575 72.0596 44.37C72.0596 42.18 71.1446 40.77 69.8096 40.77ZM89.7081 42.435H93.6081V43.455H89.7081V42.435ZM93.2181 38.625H94.4631V48.66H93.2181V38.625ZM85.7481 50.85H94.7931V51.87H85.7481V50.85ZM85.7481 47.685H86.9931V51.375H85.7481V47.685ZM83.9781 39.51H85.2081V41.91H88.8831V39.51H90.0981V46.35H83.9781V39.51ZM85.2081 42.885V45.33H88.8831V42.885H85.2081ZM106.852 38.61H108.097V52.17H106.852V38.61ZM103.687 44.04H107.407V45.075H103.687V44.04ZM102.502 40.065H103.732C103.732 43.935 102.127 47.355 97.627 49.605L96.937 48.63C100.882 46.695 102.502 43.815 102.502 40.275V40.065ZM97.522 40.065H103.162V41.085H97.522V40.065ZM110.586 49.47H122.871V50.505H110.586V49.47ZM116.076 46.56H117.321V49.905H116.076V46.56ZM112.071 39.615H121.356V43.725H113.346V46.44H112.116V42.72H120.126V40.62H112.071V39.615ZM112.116 45.915H121.671V46.935H112.116V45.915ZM124.205 45.48H136.505V46.5H124.205V45.48ZM129.815 46.125H131.075V49.245H129.815V46.125ZM125.765 50.835H135.14V51.87H125.765V50.835ZM125.765 47.91H127.01V51.12H125.765V47.91ZM130.34 38.94C133.205 38.94 135.095 39.99 135.095 41.67C135.095 43.35 133.205 44.4 130.34 44.4C127.46 44.4 125.585 43.35 125.585 41.67C125.585 39.99 127.46 38.94 130.34 38.94ZM130.34 39.96C128.27 39.96 126.905 40.62 126.905 41.67C126.905 42.735 128.27 43.38 130.34 43.38C132.41 43.38 133.775 42.735 133.775 41.67C133.775 40.62 132.41 39.96 130.34 39.96ZM144.733 39.165H146.398V40.41C146.398 43.2 145.153 45.645 142.423 46.56L141.388 44.955C143.758 44.19 144.733 42.315 144.733 40.41V39.165ZM145.153 39.165H146.758V40.32C146.758 42.165 147.658 43.875 149.863 44.58L148.828 46.14C146.263 45.255 145.153 43.02 145.153 40.32V39.165ZM151.138 38.445H153.133V46.575H151.138V38.445ZM148.423 46.935C151.363 46.935 153.178 47.94 153.178 49.635C153.178 51.345 151.363 52.335 148.423 52.335C145.483 52.335 143.668 51.345 143.668 49.635C143.668 47.94 145.483 46.935 148.423 46.935ZM148.423 48.48C146.623 48.48 145.663 48.855 145.663 49.635C145.663 50.415 146.623 50.805 148.423 50.805C150.238 50.805 151.198 50.415 151.198 49.635C151.198 48.855 150.238 48.48 148.423 48.48ZM148.603 40.965H151.423V42.585H148.603V40.965ZM155.142 45.555H167.712V47.13H155.142V45.555ZM160.587 46.395H162.597V49.32H160.587V46.395ZM156.597 50.505H166.332V52.095H156.597V50.505ZM156.597 48.27H158.577V51.18H156.597V48.27ZM156.747 38.88H158.712V40.305H164.127V38.88H166.107V44.595H156.747V38.88ZM158.712 41.805V43.035H164.127V41.805H158.712ZM181.857 38.43H183.867V52.365H181.857V38.43ZM173.022 39.54H175.002V42.915H177.867V39.54H179.847V49.125H173.022V39.54ZM175.002 44.46V47.52H177.867V44.46H175.002ZM187.195 39.615H195.985V41.22H187.195V39.615ZM185.98 49.05H198.535V50.67H185.98V49.05ZM188.605 44.67H190.585V49.56H188.605V44.67ZM195.4 39.615H197.41V40.98C197.41 42.66 197.41 44.58 196.915 47.4L194.935 47.205C195.4 44.565 195.4 42.615 195.4 40.98V39.615ZM192.04 44.67H194.005V49.56H192.04V44.67ZM199.734 44.91H212.034V45.855H199.734V44.91ZM201.189 46.95H210.489V49.845H202.464V51.435H201.234V48.99H209.274V47.835H201.189V46.95ZM201.234 51.105H210.924V52.005H201.234V51.105ZM201.294 39H210.444V41.82H202.554V43.29H201.324V40.98H209.229V39.885H201.294V39ZM201.324 42.99H210.699V43.89H201.324V42.99ZM220.788 40.095H221.823V41.475C221.823 43.965 220.293 46.05 218.013 46.875L217.368 45.885C219.408 45.165 220.788 43.41 220.788 41.475V40.095ZM221.028 40.095H222.063V41.475C222.063 43.305 223.473 44.955 225.483 45.63L224.838 46.605C222.588 45.84 221.028 43.86 221.028 41.475V40.095ZM217.698 39.735H225.123V40.74H217.698V39.735ZM227.043 38.625H228.303V48.54H227.043V38.625ZM219.588 50.85H228.708V51.87H219.588V50.85ZM219.588 47.61H220.818V51.3H219.588V47.61ZM241.052 38.61H242.237V47.19H241.052V38.61ZM238.847 42.285H241.412V43.32H238.847V42.285ZM238.157 38.88H239.327V46.71H238.157V38.88ZM230.747 40.23H237.617V41.22H230.747V40.23ZM234.197 41.91C235.892 41.91 237.077 42.84 237.077 44.235C237.077 45.645 235.892 46.56 234.197 46.56C232.487 46.56 231.302 45.645 231.302 44.235C231.302 42.84 232.487 41.91 234.197 41.91ZM234.197 42.84C233.132 42.84 232.412 43.395 232.412 44.235C232.412 45.09 233.132 45.63 234.197 45.63C235.247 45.63 235.967 45.09 235.967 44.235C235.967 43.395 235.247 42.84 234.197 42.84ZM233.582 38.715H234.797V40.785H233.582V38.715ZM237.797 47.43C240.617 47.43 242.312 48.27 242.312 49.785C242.312 51.285 240.617 52.14 237.797 52.14C234.947 52.14 233.267 51.285 233.267 49.785C233.267 48.27 234.947 47.43 237.797 47.43ZM237.797 48.39C235.712 48.39 234.497 48.885 234.497 49.785C234.497 50.685 235.712 51.195 237.797 51.195C239.852 51.195 241.082 50.685 241.082 49.785C241.082 48.885 239.852 48.39 237.797 48.39ZM244.425 40.92H251.145V41.94H244.425V40.92ZM247.785 42.84C249.48 42.84 250.71 44.115 250.71 45.945C250.71 47.76 249.48 49.035 247.785 49.035C246.105 49.035 244.875 47.76 244.875 45.945C244.875 44.115 246.105 42.84 247.785 42.84ZM247.785 43.905C246.75 43.905 246 44.745 246 45.945C246 47.145 246.75 47.985 247.785 47.985C248.835 47.985 249.6 47.145 249.6 45.945C249.6 44.745 248.835 43.905 247.785 43.905ZM254.73 38.61H255.93V52.17H254.73V38.61ZM252.57 44.31H255.135V45.345H252.57V44.31ZM251.835 38.91H253.005V51.51H251.835V38.91ZM247.185 39H248.415V41.55H247.185V39ZM264.854 43.2H268.634V44.22H264.854V43.2ZM261.584 39.78H262.604V42.195C262.604 45.24 260.999 48.15 258.854 49.305L258.059 48.315C260.054 47.325 261.584 44.715 261.584 42.195V39.78ZM261.824 39.78H262.829V42.195C262.829 44.67 264.359 47.13 266.324 48.06L265.589 49.065C263.399 47.955 261.824 45.165 261.824 42.195V39.78ZM268.019 38.595H269.249V52.185H268.019V38.595ZM100.551 61.61H101.811V68.63H100.551V61.61ZM92.9609 69.29H101.811V72.56H94.2209V74.6H93.0059V71.63H100.566V70.28H92.9609V69.29ZM93.0059 74.03H102.306V75.02H93.0059V74.03ZM91.2809 62.525H98.5559V63.515H91.2809V62.525ZM91.0409 68.18L90.9059 67.145C93.3209 67.145 96.5609 67.085 99.2009 66.755L99.2759 67.67C96.5759 68.075 93.4259 68.165 91.0409 68.18ZM92.6159 62.975H93.8159V67.595H92.6159V62.975ZM96.0059 62.975H97.2209V67.595H96.0059V62.975ZM107.315 68.585H108.545V72.65H107.315V68.585ZM112.325 68.585H113.57V72.65H112.325V68.585ZM104.315 72.41H116.6V73.445H104.315V72.41ZM110.435 62.465C113.3 62.465 115.355 63.83 115.355 65.96C115.355 68.075 113.3 69.44 110.435 69.44C107.555 69.44 105.5 68.075 105.5 65.96C105.5 63.83 107.555 62.465 110.435 62.465ZM110.435 63.455C108.26 63.455 106.7 64.445 106.7 65.96C106.7 67.46 108.26 68.45 110.435 68.45C112.61 68.45 114.155 67.46 114.155 65.96C114.155 64.445 112.61 63.455 110.435 63.455ZM127.219 61.625H128.464V71.795H127.219V61.625ZM128.074 66.065H130.474V67.115H128.074V66.065ZM117.979 63.26H125.989V64.265H117.979V63.26ZM121.984 65.015C123.904 65.015 125.224 66.02 125.224 67.55C125.224 69.065 123.904 70.07 121.984 70.07C120.049 70.07 118.729 69.065 118.729 67.55C118.729 66.02 120.049 65.015 121.984 65.015ZM121.984 65.99C120.754 65.99 119.914 66.605 119.914 67.55C119.914 68.48 120.754 69.095 121.984 69.095C123.199 69.095 124.039 68.48 124.039 67.55C124.039 66.605 123.199 65.99 121.984 65.99ZM121.354 61.61H122.599V63.785H121.354V61.61ZM120.019 73.85H129.079V74.87H120.019V73.85ZM120.019 70.985H121.264V74.285H120.019V70.985ZM142.617 65.12H145.677V66.155H142.617V65.12ZM145.287 61.61H146.532V69.695H145.287V61.61ZM142.077 70.1C144.867 70.1 146.592 71.045 146.592 72.635C146.592 74.24 144.867 75.155 142.077 75.155C139.272 75.155 137.547 74.24 137.547 72.635C137.547 71.045 139.272 70.1 142.077 70.1ZM142.077 71.075C140.037 71.075 138.792 71.645 138.792 72.635C138.792 73.61 140.037 74.18 142.077 74.18C144.117 74.18 145.362 73.61 145.362 72.635C145.362 71.645 144.117 71.075 142.077 71.075ZM138.837 62.975H139.857V64.07C139.857 66.575 138.327 68.72 136.077 69.56L135.432 68.57C137.442 67.835 138.837 66.02 138.837 64.07V62.975ZM139.077 62.975H140.082V64.07C140.082 65.825 141.402 67.505 143.367 68.195L142.737 69.185C140.532 68.39 139.077 66.35 139.077 64.07V62.975ZM135.807 62.6H143.052V63.62H135.807V62.6ZM149.021 72.41H161.306V73.445H149.021V72.41ZM154.511 69.17H155.756V72.71H154.511V69.17ZM150.461 62.57H151.691V64.985H158.606V62.57H159.836V69.5H150.461V62.57ZM151.691 65.99V68.48H158.606V65.99H151.691ZM163.21 62.825H169.435V69.11H163.21V62.825ZM168.22 63.83H164.425V68.105H168.22V63.83ZM171.925 61.595H173.17V71.54H171.925V61.595ZM172.78 65.735H175.18V66.77H172.78V65.735ZM164.725 73.85H173.785V74.87H164.725V73.85ZM164.725 70.595H165.97V74.285H164.725V70.595ZM182.988 61.895H183.933V62.855C183.933 64.4 182.943 66.14 181.008 66.86L180.393 65.93C182.073 65.345 182.988 63.95 182.988 62.855V61.895ZM183.273 61.895H184.218V62.855C184.218 63.83 185.088 65.18 186.678 65.78L186.198 66.77C184.203 66.065 183.273 64.28 183.273 62.855V61.895ZM188.193 61.895H189.138V62.855C189.138 64.325 188.193 66.08 186.198 66.77L185.748 65.78C187.323 65.21 188.193 63.905 188.193 62.855V61.895ZM188.478 61.895H189.423V62.855C189.423 64.07 190.323 65.39 192.003 65.93L191.418 66.86C189.453 66.185 188.478 64.535 188.478 62.855V61.895ZM180.078 68.375H192.378V69.395H180.078V68.375ZM185.598 66.95H186.828V69.14H185.598V66.95ZM181.428 70.745H190.788V75.17H189.558V71.765H181.428V70.745ZM196.056 63.0909L195.918 70.8626H194.442L194.304 63.0909H196.056ZM195.182 74.1012C194.888 74.1012 194.636 73.9982 194.426 73.7923C194.217 73.5827 194.114 73.3306 194.117 73.0359C194.114 72.7447 194.217 72.4961 194.426 72.2901C194.636 72.0806 194.888 71.9759 195.182 71.9759C195.47 71.9759 195.719 72.0806 195.928 72.2901C196.138 72.4961 196.244 72.7447 196.248 73.0359C196.244 73.2312 196.193 73.4105 196.093 73.5739C195.997 73.7337 195.87 73.8615 195.71 73.9574C195.55 74.0533 195.374 74.1012 195.182 74.1012ZM204.671 61.895H205.616V62.855C205.616 64.4 204.626 66.14 202.691 66.86L202.076 65.93C203.756 65.345 204.671 63.95 204.671 62.855V61.895ZM204.956 61.895H205.901V62.855C205.901 63.83 206.771 65.18 208.361 65.78L207.881 66.77C205.886 66.065 204.956 64.28 204.956 62.855V61.895ZM209.876 61.895H210.821V62.855C210.821 64.325 209.876 66.08 207.881 66.77L207.431 65.78C209.006 65.21 209.876 63.905 209.876 62.855V61.895ZM210.161 61.895H211.106V62.855C211.106 64.07 212.006 65.39 213.686 65.93L213.101 66.86C211.136 66.185 210.161 64.535 210.161 62.855V61.895ZM201.761 68.375H214.061V69.395H201.761V68.375ZM207.281 66.95H208.511V69.14H207.281V66.95ZM203.111 70.745H212.471V75.17H211.241V71.765H203.111V70.745ZM217.739 63.0909L217.6 70.8626H216.125L215.986 63.0909H217.739ZM216.865 74.1012C216.57 74.1012 216.318 73.9982 216.109 73.7923C215.899 73.5827 215.796 73.3306 215.8 73.0359C215.796 72.7447 215.899 72.4961 216.109 72.2901C216.318 72.0806 216.57 71.9759 216.865 71.9759C217.153 71.9759 217.401 72.0806 217.611 72.2901C217.82 72.4961 217.927 72.7447 217.93 73.0359C217.927 73.2312 217.875 73.4105 217.776 73.5739C217.68 73.7337 217.552 73.8615 217.392 73.9574C217.233 74.0533 217.057 74.1012 216.865 74.1012Z" fill="black"/>
<defs>
<filter id="filter0_d_1357_833" x="7.59985" y="204.153" width="34.3047" height="33.4121" filterUnits="userSpaceOnUse" color-interpolation-filters="sRGB">
<feFlood flood-opacity="0" result="BackgroundImageFix"/>
<feColorMatrix in="SourceAlpha" type="matrix" values="0 0 0 0 0 0 0 0 0 0 0 0 0 0 0 0 0 0 127 0" result="hardAlpha"/>
<feOffset dy="4"/>
<feGaussianBlur stdDeviation="2"/>
<feComposite in2="hardAlpha" operator="out"/>
<feColorMatrix type="matrix" values="0 0 0 0 0 0 0 0 0 0 0 0 0 0 0 0 0 0 0.25 0"/>
<feBlend mode="normal" in2="BackgroundImageFix" result="effect1_dropShadow_1357_833"/>
<feBlend mode="normal" in="SourceGraphic" in2="effect1_dropShadow_1357_833" result="shape"/>
</filter>
<filter id="filter1_d_1357_833" x="12" y="0" width="281" height="228" filterUnits="userSpaceOnUse" color-interpolation-filters="sRGB">
<feFlood flood-opacity="0" result="BackgroundImageFix"/>
<feColorMatrix in="SourceAlpha" type="matrix" values="0 0 0 0 0 0 0 0 0 0 0 0 0 0 0 0 0 0 127 0" result="hardAlpha"/>
<feOffset dy="4"/>
<feGaussianBlur stdDeviation="2"/>
<feComposite in2="hardAlpha" operator="out"/>
<feColorMatrix type="matrix" values="0 0 0 0 0 0 0 0 0 0 0 0 0 0 0 0 0 0 0.25 0"/>
<feBlend mode="normal" in2="BackgroundImageFix" result="effect1_dropShadow_1357_833"/>
<feBlend mode="normal" in="SourceGraphic" in2="effect1_dropShadow_1357_833" result="shape"/>
</filter>
</defs>
</svg>
