<svg width="265" height="110" viewBox="0 0 265 110" fill="none" xmlns="http://www.w3.org/2000/svg">
<g filter="url(#filter0_d_1357_828)">
<path d="M255.297 101.236L231.553 90.5838L249.5 75L255.297 101.236Z" fill="#A7FAF0"/>
<path d="M249.439 75.1857L255.156 101.064L231.736 90.5567L249.439 75.1857Z" stroke="black" stroke-width="0.2"/>
</g>
<g filter="url(#filter1_d_1357_828)">
<rect x="4" width="246" height="91" rx="20" fill="#A7FAF0"/>
<rect x="4.1" y="0.1" width="245.8" height="90.8" rx="19.9" stroke="black" stroke-width="0.2"/>
</g>
<path d="M229.917 90.3811L245.304 76.0833L249.311 75.3273L252.512 89.8634L243.5 95.5833L231.5 90.3811L229.917 90.3811Z" fill="white"/>
<path d="M229.917 90.3811L245.304 76.0833L249.311 75.3273L252.512 89.8634L243.5 95.5833L231.5 90.3811L229.917 90.3811Z" fill="#A7FAF0"/>
<path d="M89.3867 24.595H90.6317V38.185H89.3867V24.595ZM83.4767 25.645C85.4867 25.645 86.9267 27.49 86.9267 30.37C86.9267 33.265 85.4867 35.11 83.4767 35.11C81.4817 35.11 80.0417 33.265 80.0417 30.37C80.0417 27.49 81.4817 25.645 83.4767 25.645ZM83.4767 26.77C82.1567 26.77 81.2267 28.18 81.2267 30.37C81.2267 32.575 82.1567 34.015 83.4767 34.015C84.8117 34.015 85.7267 32.575 85.7267 30.37C85.7267 28.18 84.8117 26.77 83.4767 26.77ZM96.1956 29.2H97.4256V31.765H96.1956V29.2ZM101.176 29.2H102.406V31.765H101.176V29.2ZM93.1656 31.315H105.421V32.32H93.1656V31.315ZM99.2856 33.34C102.196 33.34 103.936 34.195 103.936 35.74C103.936 37.285 102.196 38.155 99.2856 38.155C96.3756 38.155 94.6356 37.285 94.6356 35.74C94.6356 34.195 96.3756 33.34 99.2856 33.34ZM99.2856 34.3C97.1706 34.3 95.8956 34.825 95.8956 35.74C95.8956 36.67 97.1706 37.18 99.2856 37.18C101.416 37.18 102.676 36.67 102.676 35.74C102.676 34.825 101.416 34.3 99.2856 34.3ZM99.3006 24.85C102.241 24.85 104.071 25.795 104.071 27.385C104.071 28.96 102.241 29.89 99.3006 29.89C96.3456 29.89 94.5306 28.96 94.5306 27.385C94.5306 25.795 96.3456 24.85 99.3006 24.85ZM99.3006 25.825C97.1406 25.825 95.8056 26.395 95.8056 27.385C95.8056 28.36 97.1406 28.93 99.3006 28.93C101.461 28.93 102.796 28.36 102.796 27.385C102.796 26.395 101.461 25.825 99.3006 25.825ZM110.159 26.545H111.149V28.75C111.149 31.57 109.424 34.48 107.309 35.56L106.589 34.57C108.524 33.625 110.159 31.045 110.159 28.75V26.545ZM110.384 26.545H111.374V28.75C111.374 30.895 112.904 33.31 114.869 34.24L114.164 35.23C112.019 34.165 110.384 31.435 110.384 28.75V26.545ZM107.069 25.99H114.374V27.04H107.069V25.99ZM115.979 24.61H117.239V38.17H115.979V24.61ZM116.939 30.085H119.459V31.135H116.939V30.085ZM129.613 24.595H130.873V38.17H129.613V24.595ZM130.528 30.1H133.033V31.135H130.528V30.1ZM126.148 26.065H127.363C127.363 29.92 125.593 33.4 121.213 35.605L120.523 34.645C124.273 32.74 126.148 29.845 126.148 26.26V26.065ZM121.153 26.065H126.793V27.085H121.153V26.065ZM141.727 31.435H142.972V34.45H141.727V31.435ZM147.742 24.61H148.987V34.93H147.742V24.61ZM139.732 36.85H149.317V37.87H139.732V36.85ZM139.732 33.925H140.977V37.135H139.732V33.925ZM137.977 31.9L137.812 30.88C140.317 30.88 143.677 30.85 146.557 30.475L146.647 31.39C143.722 31.855 140.437 31.9 137.977 31.9ZM144.982 32.62H148.057V33.535H144.982V32.62ZM142.222 25.165C144.202 25.165 145.552 26.095 145.552 27.52C145.552 28.96 144.202 29.89 142.222 29.89C140.227 29.89 138.877 28.96 138.877 27.52C138.877 26.095 140.227 25.165 142.222 25.165ZM142.222 26.095C140.947 26.095 140.062 26.65 140.062 27.52C140.062 28.39 140.947 28.945 142.222 28.945C143.482 28.945 144.367 28.39 144.367 27.52C144.367 26.65 143.482 26.095 142.222 26.095ZM160.701 24.61H161.946V38.17H160.701V24.61ZM161.646 30.175H164.166V31.225H161.646V30.175ZM151.446 26.77H159.441V27.79H151.446V26.77ZM155.496 28.915C157.416 28.915 158.796 30.205 158.796 32.035C158.796 33.865 157.416 35.155 155.496 35.155C153.591 35.155 152.196 33.865 152.196 32.035C152.196 30.205 153.591 28.915 155.496 28.915ZM155.496 29.95C154.266 29.95 153.381 30.805 153.381 32.035C153.381 33.25 154.266 34.12 155.496 34.12C156.726 34.12 157.611 33.25 157.611 32.035C157.611 30.805 156.726 29.95 155.496 29.95ZM154.851 24.775H156.096V27.235H154.851V24.775ZM166.804 28.675H176.014V29.695H166.804V28.675ZM165.139 31.51H177.439V32.53H165.139V31.51ZM166.804 25.105H168.034V29.185H166.804V25.105ZM166.714 36.82H176.089V37.84H166.714V36.82ZM166.714 33.88H167.944V37.09H166.714V33.88ZM53.8241 48.78H55.7441C55.7441 53.055 54.6041 56.7 49.3841 59.295L48.3341 57.75C52.6091 55.62 53.8241 52.95 53.8241 49.02V48.78ZM49.1591 48.78H54.7991V50.355H49.1591V48.78ZM53.7941 52.185V53.715L48.7091 54.165L48.4541 52.485L53.7941 52.185ZM57.7991 47.445H59.8091V61.335H57.7991V47.445ZM65.223 55.275H67.218V60.915H65.223V55.275ZM71.628 47.445H73.638V61.335H71.628V47.445ZM62.058 56.115L61.818 54.495C64.398 54.495 67.803 54.48 70.758 54.075L70.863 55.53C67.833 56.07 64.593 56.115 62.058 56.115ZM68.853 56.79H72.033V58.29H68.853V56.79ZM66.318 48.015C68.358 48.015 69.843 49.185 69.843 50.865C69.843 52.56 68.358 53.715 66.318 53.715C64.248 53.715 62.778 52.56 62.778 50.865C62.778 49.185 64.248 48.015 66.318 48.015ZM66.318 49.515C65.328 49.515 64.638 50.025 64.638 50.865C64.638 51.72 65.328 52.2 66.318 52.2C67.278 52.2 67.968 51.72 67.968 50.865C67.968 50.025 67.278 49.515 66.318 49.515ZM76.9668 53.85H86.7318V55.44H76.9668V53.85ZM75.5118 58.035H88.0818V59.67H75.5118V58.035ZM76.9668 48.585H86.6268V50.205H78.9468V54.51H76.9668V48.585ZM89.1306 53.67H101.716V55.125H89.1306V53.67ZM90.5406 55.815H100.216V59.115H92.5506V60.3H90.5706V57.855H98.2506V57.165H90.5406V55.815ZM90.5706 59.88H100.606V61.23H90.5706V59.88ZM90.6756 47.685H100.186V50.955H92.6706V52.095H90.6906V49.71H98.2206V49.02H90.6756V47.685ZM90.6906 51.675H100.441V53.025H90.6906V51.675ZM113.415 50.4H116.64V52.005H113.415V50.4ZM109.5 48.3H111.105V49.8C111.105 52.635 109.92 55.05 107.295 56.01L106.245 54.45C108.54 53.685 109.5 51.765 109.5 49.8V48.3ZM109.935 48.3H111.525V49.815C111.525 51.6 112.44 53.385 114.63 54.135L113.565 55.665C111.075 54.765 109.935 52.44 109.935 49.815V48.3ZM115.95 47.46H117.945V57.705H115.95V47.46ZM108.75 59.505H118.245V61.095H108.75V59.505ZM108.75 56.67H110.76V60.39H108.75V56.67ZM120.419 53.775H121.379C123.389 53.775 124.679 53.745 126.209 53.49L126.389 55.08C124.799 55.35 123.449 55.395 121.379 55.395H120.419V53.775ZM120.419 48.375H125.894V49.965H122.339V54.66H120.419V48.375ZM121.769 51.09H125.744V52.59H121.769V51.09ZM129.899 47.445H131.789V55.92H129.899V47.445ZM128.234 50.85H130.439V52.44H128.234V50.85ZM126.929 47.7H128.789V55.83H126.929V47.7ZM122.249 56.52H131.789V61.335H129.809V58.11H122.249V56.52ZM142.918 47.61H144.163V61.17H142.918V47.61ZM143.863 53.175H146.383V54.225H143.863V53.175ZM133.663 49.77H141.658V50.79H133.663V49.77ZM137.713 51.915C139.633 51.915 141.013 53.205 141.013 55.035C141.013 56.865 139.633 58.155 137.713 58.155C135.808 58.155 134.413 56.865 134.413 55.035C134.413 53.205 135.808 51.915 137.713 51.915ZM137.713 52.95C136.483 52.95 135.598 53.805 135.598 55.035C135.598 56.25 136.483 57.12 137.713 57.12C138.943 57.12 139.828 56.25 139.828 55.035C139.828 53.805 138.943 52.95 137.713 52.95ZM137.068 47.775H138.313V50.235H137.068V47.775ZM157.242 47.61H158.487V61.17H157.242V47.61ZM153.267 49.065H154.497C154.497 52.995 152.727 56.43 148.197 58.65L147.537 57.645C151.452 55.755 153.267 52.875 153.267 49.275V49.065ZM148.152 49.065H153.807V50.085H148.152V49.065ZM161.56 48.825H167.785V55.11H161.56V48.825ZM166.57 49.83H162.775V54.105H166.57V49.83ZM170.275 47.595H171.52V57.54H170.275V47.595ZM171.13 51.735H173.53V52.77H171.13V51.735ZM163.075 59.85H172.135V60.87H163.075V59.85ZM163.075 56.595H164.32V60.285H163.075V56.595ZM187.624 47.61H188.869V61.17H187.624V47.61ZM188.569 53.175H191.089V54.225H188.569V53.175ZM178.369 49.77H186.364V50.79H178.369V49.77ZM182.419 51.915C184.339 51.915 185.719 53.205 185.719 55.035C185.719 56.865 184.339 58.155 182.419 58.155C180.514 58.155 179.119 56.865 179.119 55.035C179.119 53.205 180.514 51.915 182.419 51.915ZM182.419 52.95C181.189 52.95 180.304 53.805 180.304 55.035C180.304 56.25 181.189 57.12 182.419 57.12C183.649 57.12 184.534 56.25 184.534 55.035C184.534 53.805 183.649 52.95 182.419 52.95ZM181.774 47.775H183.019V50.235H181.774V47.775ZM198.573 49.995H202.368V51.015H198.573V49.995ZM198.573 52.89H202.398V53.925H198.573V52.89ZM192.693 48.78H198.888V55.14H192.693V48.78ZM197.658 49.785H193.908V54.135H197.658V49.785ZM201.978 47.625H203.223V57.525H201.978V47.625ZM194.508 59.85H203.553V60.87H194.508V59.85ZM194.508 56.625H195.753V60.315H194.508V56.625ZM208.041 49.0909L207.902 56.8626H206.427L206.288 49.0909H208.041ZM207.167 60.1012C206.872 60.1012 206.62 59.9982 206.411 59.7923C206.201 59.5827 206.098 59.3306 206.102 59.0359C206.098 58.7447 206.201 58.4961 206.411 58.2901C206.62 58.0806 206.872 57.9759 207.167 57.9759C207.455 57.9759 207.703 58.0806 207.913 58.2901C208.122 58.4961 208.229 58.7447 208.232 59.0359C208.229 59.2312 208.177 59.4105 208.078 59.5739C207.982 59.7337 207.854 59.8615 207.694 59.9574C207.534 60.0533 207.359 60.1012 207.167 60.1012Z" fill="black"/>
<defs>
<filter id="filter0_d_1357_828" x="227.553" y="75" width="31.7439" height="34.2363" filterUnits="userSpaceOnUse" color-interpolation-filters="sRGB">
<feFlood flood-opacity="0" result="BackgroundImageFix"/>
<feColorMatrix in="SourceAlpha" type="matrix" values="0 0 0 0 0 0 0 0 0 0 0 0 0 0 0 0 0 0 127 0" result="hardAlpha"/>
<feOffset dy="4"/>
<feGaussianBlur stdDeviation="2"/>
<feComposite in2="hardAlpha" operator="out"/>
<feColorMatrix type="matrix" values="0 0 0 0 0 0 0 0 0 0 0 0 0 0 0 0 0 0 0.25 0"/>
<feBlend mode="normal" in2="BackgroundImageFix" result="effect1_dropShadow_1357_828"/>
<feBlend mode="normal" in="SourceGraphic" in2="effect1_dropShadow_1357_828" result="shape"/>
</filter>
<filter id="filter1_d_1357_828" x="0" y="0" width="254" height="99" filterUnits="userSpaceOnUse" color-interpolation-filters="sRGB">
<feFlood flood-opacity="0" result="BackgroundImageFix"/>
<feColorMatrix in="SourceAlpha" type="matrix" values="0 0 0 0 0 0 0 0 0 0 0 0 0 0 0 0 0 0 127 0" result="hardAlpha"/>
<feOffset dy="4"/>
<feGaussianBlur stdDeviation="2"/>
<feComposite in2="hardAlpha" operator="out"/>
<feColorMatrix type="matrix" values="0 0 0 0 0 0 0 0 0 0 0 0 0 0 0 0 0 0 0.25 0"/>
<feBlend mode="normal" in2="BackgroundImageFix" result="effect1_dropShadow_1357_828"/>
<feBlend mode="normal" in="SourceGraphic" in2="effect1_dropShadow_1357_828" result="shape"/>
</filter>
</defs>
</svg>
