<svg width="21" height="22" viewBox="0 0 21 22" fill="none" xmlns="http://www.w3.org/2000/svg">
<g id="Trash">
<path id="Vector 8" d="M8.75 13.75L8.75 11" stroke="#33363F" stroke-width="2" stroke-linecap="round"/>
<path id="Vector 9" d="M12.25 13.75L12.25 11" stroke="#33363F" stroke-width="2" stroke-linecap="round"/>
<path id="Rectangle 41" d="M2.625 6.41666H18.375V6.41666C17.7939 6.41666 17.5033 6.41666 17.264 6.47659C16.5482 6.65591 15.9892 7.21485 15.8099 7.9307C15.75 8.16998 15.75 8.46054 15.75 9.04166V14.3333C15.75 16.2189 15.75 17.1618 15.1642 17.7475C14.5784 18.3333 13.6356 18.3333 11.75 18.3333H9.25C7.36438 18.3333 6.42157 18.3333 5.83579 17.7475C5.25 17.1618 5.25 16.2189 5.25 14.3333V9.04166C5.25 8.46054 5.25 8.16998 5.19006 7.9307C5.01075 7.21485 4.45181 6.65591 3.73596 6.47659C3.49668 6.41666 3.20612 6.41666 2.625 6.41666V6.41666Z" stroke="#33363F" stroke-width="2" stroke-linecap="round"/>
<path id="Ellipse 45" d="M8.80963 3.08971C8.90934 2.99225 9.12904 2.90613 9.43467 2.84471C9.74029 2.78329 10.1148 2.75 10.5 2.75C10.8852 2.75 11.2597 2.78329 11.5653 2.84471C11.871 2.90613 12.0907 2.99225 12.1904 3.08971" stroke="#33363F" stroke-width="2" stroke-linecap="round"/>
</g>
</svg>
