<svg width="38" height="34" viewBox="0 0 38 34" fill="none" xmlns="http://www.w3.org/2000/svg">
<path d="M18.8228 4.42641L19 4.60441L19.1771 4.42641C20.0286 3.57101 21.2612 3.08337 22.5625 3.08337C24.8338 3.08337 26.6666 4.68936 26.6666 6.64421C26.6666 7.93268 26.0433 9.10989 24.7348 10.513C23.4498 11.8909 21.5396 13.4503 19 15.5161C16.4604 13.4504 14.5498 11.8909 13.2644 10.5229C11.9546 9.12883 11.3333 7.97331 11.3333 6.72921C11.3333 4.76091 13.0861 3.08337 15.3425 3.08337C16.7412 3.08337 17.9729 3.57261 18.8228 4.42641ZM11.7907 11.9056C13.323 13.0495 15.0553 14.7464 17.3452 17C15.0554 19.2536 13.323 20.9509 11.8019 22.095C10.2464 23.265 8.94105 23.8334 7.52079 23.8334C5.24943 23.8334 3.41663 22.2274 3.41663 20.2725C3.41663 19.0465 3.95105 17.9563 4.90576 17.1956L5.15111 17L4.90576 16.8045C3.94881 16.042 3.41663 14.9508 3.41663 13.8125C3.41663 11.8442 5.16947 10.1667 7.42579 10.1667C8.89518 10.1667 10.2247 10.7365 11.7907 11.9056ZM26.2113 22.0946C24.681 20.9507 22.9524 19.2537 20.6699 17C22.9523 14.7464 24.681 13.0491 26.2001 11.905C27.7536 10.7351 29.0589 10.1667 30.4791 10.1667C32.7505 10.1667 34.5833 11.7727 34.5833 13.7275C34.5833 14.9536 34.0489 16.0437 33.0942 16.8045L32.8488 17L33.0942 17.1956C34.0511 17.9581 34.5833 19.0493 34.5833 20.1875C34.5833 22.1558 32.8304 23.8334 30.5741 23.8334C29.1047 23.8334 27.7752 23.2636 26.2113 22.0946ZM19.1771 29.5737L19 29.3957L18.8228 29.5737C17.9713 30.4291 16.7387 30.9167 15.4375 30.9167C13.1661 30.9167 11.3333 29.3107 11.3333 27.3559C11.3333 26.0674 11.9567 24.8902 13.2651 23.4871C14.5501 22.1091 16.4603 20.5498 19 18.484C21.5395 20.5497 23.4502 22.1092 24.7355 23.4772C26.0453 24.8713 26.6666 26.0268 26.6666 27.2709C26.6666 29.2392 24.9138 30.9167 22.6575 30.9167C21.2587 30.9167 20.027 30.4275 19.1771 29.5737Z" fill="#FFFBA6" stroke="black" stroke-width="0.5"/>
</svg>
