<svg width="38" height="34" viewBox="0 0 38 34" fill="none" xmlns="http://www.w3.org/2000/svg">
<g id="&#237;&#129;&#180;&#235;&#161;&#156;&#235;&#178;&#132;">
<path id="Vector" d="M18.8228 4.42638L19 4.60438L19.1772 4.42638C20.0287 3.57098 21.2613 3.08334 22.5625 3.08334C24.8339 3.08334 26.6667 4.68933 26.6667 6.64418C26.6667 7.93265 26.0433 9.10986 24.7349 10.5129C23.4499 11.8909 21.5396 13.4503 19 15.5161C16.4605 13.4504 14.5498 11.8909 13.2645 10.5229C11.9547 9.1288 11.3334 7.97328 11.3334 6.72918C11.3334 4.76088 13.0862 3.08334 15.3425 3.08334C16.7412 3.08334 17.973 3.57258 18.8228 4.42638ZM11.7908 11.9056C13.323 13.0494 15.0553 14.7464 17.3453 17C15.0554 19.2536 13.3231 20.9509 11.8019 22.095C10.2464 23.265 8.94111 23.8333 7.52085 23.8333C5.24949 23.8333 3.41669 22.2274 3.41669 20.2725C3.41669 19.0464 3.95111 17.9563 4.90582 17.1955L5.15117 17L4.90582 16.8045C3.94887 16.0419 3.41669 14.9508 3.41669 13.8125C3.41669 11.8442 5.16953 10.1667 7.42585 10.1667C8.89524 10.1667 10.2248 10.7365 11.7908 11.9056ZM26.2114 22.0946C24.6811 20.9507 22.9525 19.2537 20.67 17C22.9524 14.7464 24.681 13.049 26.2002 11.9049C27.7536 10.735 29.0589 10.1667 30.4792 10.1667C32.7505 10.1667 34.5834 11.7727 34.5834 13.7275C34.5834 14.9536 34.0489 16.0437 33.0942 16.8045L32.8489 17L33.0942 17.1955C34.0512 17.9581 34.5834 19.0492 34.5834 20.1875C34.5834 22.1558 32.8305 23.8333 30.5742 23.8333C29.1048 23.8333 27.7753 23.2636 26.2114 22.0946ZM19.1772 29.5736L19 29.3956L18.8228 29.5736C17.9714 30.429 16.7388 30.9167 15.4375 30.9167C13.1662 30.9167 11.3334 29.3107 11.3334 27.3558C11.3334 26.0674 11.9567 24.8902 13.2651 23.4871C14.5501 22.1091 16.4604 20.5497 19 18.4839C21.5395 20.5497 23.4502 22.1091 24.7355 23.4771C26.0454 24.8712 26.6667 26.0267 26.6667 27.2708C26.6667 29.2391 24.9138 30.9167 22.6575 30.9167C21.2588 30.9167 20.0271 30.4274 19.1772 29.5736Z" fill="#FFFBA6" stroke="black" stroke-width="0.5"/>
</g>
</svg>
